# xmcd
#
# Track frame offsets: 
#        150
#        15848
#        28412
#        43994
#        55160
#        69454
#        82072
#        96563
#        108112
#        118526
#        127241
#        146401
#        160767
#        178982
#
# Disc length: 2557 seconds
#
# Revision: 0
# Processed by: cddbd v1.5.2PL0 Copyright (c) Steve Scherf et al.
# Submitted via: ExactAudioCopy v1.0b3
#
DISCID=c709fb0e
DTITLE=Nathan Hanna - At Home
DYEAR=1900
DGENRE=Blues
TTITLE0=Sugartime
TTITLE1='S Wonderful
TTITLE2=Classical Medley
TTITLE3=Tribute to Dave Brubeck
TTITLE4=Ginza Samba
TTITLE5=I Can't Give You Anything But Love
TTITLE6=If I Had You
TTITLE7=Original Song
TTITLE8=I Would Do Anything For You
TTITLE9=Miss Annabelle Lee
TTITLE10=Ragtime Medley
TTITLE11=Body and Soul
TTITLE12=Exactly Like You
TTITLE13=Sweet Sue
EXTD=
EXTT0=
EXTT1=
EXTT2=
EXTT3=
EXTT4=
EXTT5=
EXTT6=
EXTT7=
EXTT8=
EXTT9=
EXTT10=
EXTT11=
EXTT12=
EXTT13=
PLAYORDER=
